HIERARCHY
ROOT Hips
{
	OFFSET 0.00000 0.00000 0.00000
	CHANNELS 6 Xposition Yposition Zposition Zrotation Yrotation Xrotation 
	JOINT LHipJoint
	{
		OFFSET 0 0 0
		CHANNELS 3 Zrotation Yrotation Xrotation
		JOINT LeftUpLeg
		{
			OFFSET 1.23340 -1.80723 0.69510
			CHANNELS 3 Zrotation Yrotation Xrotation
			JOINT LeftLeg
			{
				OFFSET 2.50056 -6.87023 0.00000
				CHANNELS 3 Zrotation Yrotation Xrotation
				JOINT LeftFoot
				{
					OFFSET 2.85931 -7.85591 0.00000
					CHANNELS 3 Zrotation Yrotation Xrotation
					JOINT LeftToeBase
					{
						OFFSET 0.21001 -0.57700 2.07823
						CHANNELS 3 Zrotation Yrotation Xrotation
						End Site
						{
							OFFSET 0.00000 -0.00000 1.08338
						}
					}
				}
			}
		}
	}
	JOINT RHipJoint
	{
		OFFSET 0 0 0
		CHANNELS 3 Zrotation Yrotation Xrotation
		JOINT RightUpLeg
		{
			OFFSET -1.40842 -1.80723 0.69510
			CHANNELS 3 Zrotation Yrotation Xrotation
			JOINT RightLeg
			{
				OFFSET -2.54876 -7.00266 0.00000
				CHANNELS 3 Zrotation Yrotation Xrotation
				JOINT RightFoot
				{
					OFFSET -2.74835 -7.55104 0.00000
					CHANNELS 3 Zrotation Yrotation Xrotation
					JOINT RightToeBase
					{
						OFFSET -0.22633 -0.62184 2.00890
						CHANNELS 3 Zrotation Yrotation Xrotation
						End Site
						{
							OFFSET -0.00000 -0.00000 1.05493
						}
					}
				}
			}
		}
	}
	JOINT LowerBack
	{
		OFFSET 0 0 0
		CHANNELS 3 Zrotation Yrotation Xrotation
		JOINT Spine
		{
			OFFSET -0.02340 2.02740 -0.12728
			CHANNELS 3 Zrotation Yrotation Xrotation
			JOINT Spine1
			{
				OFFSET -0.00862 2.03614 -0.01188
				CHANNELS 3 Zrotation Yrotation Xrotation
				JOINT Neck
				{
					OFFSET 0 0 0
					CHANNELS 3 Zrotation Yrotation Xrotation
					JOINT Neck1
					{
						OFFSET 0.03380 1.76650 0.27670
						CHANNELS 3 Zrotation Yrotation Xrotation
						JOINT Head
						{
							OFFSET -0.01114 1.80516 -0.21451
							CHANNELS 3 Zrotation Yrotation Xrotation
							End Site
							{
								OFFSET -0.00766 1.81942 -0.10287
							}
						}
					}
				}
				JOINT LeftShoulder
				{
					OFFSET 0 0 0
					CHANNELS 3 Zrotation Yrotation Xrotation
					JOINT LeftArm
					{
						OFFSET 3.22358 1.39475 0.18630
						CHANNELS 3 Zrotation Yrotation Xrotation
						JOINT LeftForeArm
						{
							OFFSET 5.45077 -0.00000 0.00000
							CHANNELS 3 Zrotation Yrotation Xrotation
							JOINT LeftHand
							{
								OFFSET 3.05488 -0.00000 0.00000
								CHANNELS 3 Zrotation Yrotation Xrotation
								JOINT LeftFingerBase
								{
									OFFSET 0 0 0
									CHANNELS 3 Zrotation Yrotation Xrotation
									JOINT LeftHandIndex1
									{
										OFFSET 0.63882 -0.00000 0.00000
										CHANNELS 3 Zrotation Yrotation Xrotation
										End Site
										{
											OFFSET 0.51503 -0.00000 0.00000
										}
									}
								}
								JOINT LThumb
								{
									OFFSET 0 0 0
									CHANNELS 3 Zrotation Yrotation Xrotation
									End Site
									{
										OFFSET 0.52290 -0.00000 0.52290
									}
								}
							}
						}
					}
				}
				JOINT RightShoulder
				{
					OFFSET 0 0 0
					CHANNELS 3 Zrotation Yrotation Xrotation
					JOINT RightArm
					{
						OFFSET -3.57143 1.14055 0.30691
						CHANNELS 3 Zrotation Yrotation Xrotation
						JOINT RightForeArm
						{
							OFFSET -4.88702 -0.00000 -0.00000
							CHANNELS 3 Zrotation Yrotation Xrotation
							JOINT RightHand
							{
								OFFSET -3.22603 -0.00000 0.00000
								CHANNELS 3 Zrotation Yrotation Xrotation
								JOINT RightFingerBase
								{
									OFFSET 0 0 0
									CHANNELS 3 Zrotation Yrotation Xrotation
									JOINT RightHandIndex1
									{
										OFFSET -0.71629 -0.00000 0.00000
										CHANNELS 3 Zrotation Yrotation Xrotation
										End Site
										{
											OFFSET -0.57749 -0.00000 0.00000
										}
									}
								}
								JOINT RThumb
								{
									OFFSET 0 0 0
									CHANNELS 3 Zrotation Yrotation Xrotation
									End Site
									{
										OFFSET -0.58631 -0.00000 0.58631
									}
								}
							}
						}
					}
				}
			}
		}
	}
}
MOTION
Frames: 14
Frame Time: .0083333
0.9584 18.5457 0.4533 0 0 0 0 0 0 -21 0 0 0 0 0 0 0 0 0 0 0 0 0 0 21 0 0 0 0 0 0 0 0 0 0 0 0 0 0 0 0 0 0 0 0 0 0 -16 0 0 21 0 0 11 0 0 0 -8 0 0 0 0 0 0 0 0 0 0 0 0 0 0 0 0 0 0 0 0 8 0 0 0 0 0 0 0 0 0 0 0 0 0 0 0 0 0
0.9584 18.5457 0.4533 5.8262 82.6285 16.9630 0.0000 0.0000 0.0000 -17.6227 2.4509 -14.1374 0.6545 5.1746 14.4073 0.5539 -2.1643 -13.4827 2.5471 -9.9230 -28.7277 0.0000 0.0000 0.0000 15.3854 3.6290 -6.3649 0.0000 -0.0000 0.0000 0.0802 6.4183 -1.9271 -0.3275 3.6779 -10.1722 -2.6194 -1.0827 -9.4442 -1.3233 -1.0639 -3.0106 -0.0127 -0.4909 2.1920 -4.1160 -9.3724 -15.3813 0.9089 -12.1092 21.4444 -0.5747 -5.8134 9.6214 0.0000 0.0000 0.0000 -81.4836 5.5165 44.2929 24.0799 -35.2486 -7.7526 -0.0000 0.0000 -7.4433 -0.0000 -0.0000 0.0000 -0.0000 0.0000 0.0000 0.0000 0.0000 0.0000 0.0000 0.0000 0.0000 90.8376 1.8719 55.1097 -13.6662 22.2555 -2.7004 0.0000 0.0000 9.2602 -15.1106 9.1404 -2.4561 7.1250 -0.0000 -0.0000 8.4708 -20.5645 5.0098
0.9588 18.5471 0.4558 3.9685 82.6387 15.1706 0.0000 0.0000 0.0000 -17.3421 2.3323 -14.3303 0.6837 5.2865 14.7276 0.5754 -2.0216 -13.7784 2.6034 -10.0235 -29.0528 0.0000 0.0000 0.0000 15.6529 3.7167 -6.4291 0.0000 0.0000 -0.0000 0.0796 6.3722 -1.8887 -0.3282 3.6820 -10.1837 -2.4521 -1.0150 -9.5296 -1.2275 -0.9900 -3.0187 -0.0005 -0.4546 2.2282 -3.7820 -8.9364 -15.6450 0.5621 -11.4876 21.2723 -0.6643 -5.5396 9.5484 -0.0000 -0.0000 0.0000 -81.4490 5.5230 44.9968 24.6310 -35.8244 -8.0729 -0.0000 0.0000 -8.1345 -0.0000 -0.0000 0.0000 -0.0000 0.0000 0.0000 0.0000 0.0000 0.0000 -0.0000 -0.0000 0.0000 90.6798 2.0897 54.7722 -13.6627 22.2504 -2.6991 0.0000 0.0000 9.1427 -14.9760 9.2114 -2.4519 7.1250 -0.0000 -0.0000 8.5652 -20.4989 5.0797
0.9576 18.5476 0.4549 3.3103 82.6155 14.5216 0.0000 0.0000 0.0000 -17.2640 2.2709 -14.2612 0.6757 5.2562 14.6407 0.5764 -1.8576 -13.8240 2.6098 -10.0348 -29.0895 0.0000 0.0000 0.0000 15.7335 3.7716 -6.4468 0.0000 0.0000 -0.0000 0.0783 6.2712 -1.8072 -0.3134 3.5988 -9.9506 -2.3777 -0.9325 -9.4943 -1.2020 -0.8901 -3.0422 -0.0039 -0.4044 2.1820 -3.4455 -8.5425 -15.8981 0.2311 -10.9336 21.1046 -0.7587 -5.2950 9.4820 -0.0000 -0.0000 0.0000 -81.4270 5.4550 45.4089 25.5203 -36.7311 -8.5992 -0.0000 0.0000 -9.4967 -0.0000 -0.0000 0.0000 -0.0000 0.0000 0.0000 0.0000 0.0000 0.0000 -0.0000 -0.0000 0.0000 90.5955 2.1901 54.3132 -13.6954 22.2975 -2.7115 0.0000 0.0000 8.9073 -15.0832 8.9921 -2.4121 7.1250 -0.0000 -0.0000 8.4944 -20.7175 4.9945
0.9575 18.5512 0.4570 3.6116 82.7085 14.8387 0.0000 0.0000 0.0000 -17.2752 2.1907 -14.2727 0.6752 5.2544 14.6356 0.5710 -1.8450 -13.7595 2.6595 -10.1222 -29.3735 0.0000 0.0000 0.0000 15.7210 3.6937 -6.5219 0.0000 0.0000 -0.0000 0.0770 6.2054 -1.7712 -0.2925 3.4776 -9.6113 -2.4453 -0.9257 -9.4645 -1.1811 -0.8763 -3.0727 0.0580 -0.3965 2.1350 -3.1823 -8.1275 -16.1267 -0.0331 -10.3506 20.9627 -0.8162 -5.0344 9.4323 0.0000 0.0000 0.0000 -81.3633 5.4843 46.1435 25.9940 -37.2028 -8.8840 -0.0000 0.0000 -9.4650 -0.0000 -0.0000 0.0000 -0.0000 0.0000 0.0000 0.0000 0.0000 0.0000 0.0000 0.0000 0.0000 90.4549 2.2615 54.2390 -13.7681 22.4023 -2.7391 0.0000 0.0000 8.1119 -15.6449 8.6729 -2.4181 7.1250 -0.0000 -0.0000 8.0997 -21.0166 4.7024
0.9567 18.5515 0.4605 4.1274 82.9304 15.3548 0.0000 0.0000 0.0000 -17.2852 2.2721 -14.3739 0.6735 5.2479 14.6171 0.5574 -2.1911 -13.5216 2.5099 -9.8560 -28.5115 0.0000 0.0000 0.0000 15.7203 3.4733 -6.5866 0.0000 0.0000 -0.0000 0.0756 6.1136 -1.7090 -0.2464 3.1944 -8.8205 -2.5256 -0.9490 -9.4418 -1.1677 -0.9008 -3.0843 0.1146 -0.4080 2.1123 -2.7414 -7.6694 -16.3057 -0.4088 -9.7312 20.7556 -0.9302 -4.7572 9.3376 0.0000 -0.0000 0.0000 -81.2308 5.4885 46.9813 26.4316 -37.6317 -9.1499 -0.0000 0.0000 -9.6438 -0.0000 -0.0000 0.0000 -0.0000 0.0000 0.0000 0.0000 0.0000 0.0000 0.0000 -0.0000 0.0000 90.3669 2.3885 53.7177 -13.7883 22.4313 -2.7468 0.0000 0.0000 7.8963 -15.7352 8.7086 -2.4427 7.1250 -0.0000 -0.0000 8.0339 -20.9756 4.6710
0.9563 18.5470 0.4623 3.8534 83.1451 15.0811 0.0000 0.0000 0.0000 -17.2158 2.5238 -14.5576 0.6733 5.2472 14.6148 0.5381 -2.6712 -13.1993 2.2875 -9.4409 -27.1846 0.0000 0.0000 0.0000 15.8372 3.2624 -6.5757 0.0000 -0.0000 0.0000 0.0718 5.9588 -1.6654 -0.2045 2.9121 -8.0341 -2.5012 -0.9702 -9.4141 -1.1112 -0.9343 -3.0898 0.1560 -0.4246 2.0928 -2.1130 -7.1723 -16.4405 -1.0036 -9.0600 20.4442 -1.1368 -4.4681 9.1829 -0.0000 -0.0000 0.0000 -81.1963 5.5304 47.5351 26.9116 -38.0947 -9.4445 -0.0000 0.0000 -9.9983 11.7872 24.2019 4.8897 -7.1250 0.0000 -0.0000 -18.3356 53.6948 -4.0250 -0.0000 -0.0000 0.0000 90.2329 2.5494 53.0518 -13.8160 22.4710 -2.7574 0.0000 0.0000 7.7909 -15.3712 8.8831 -2.4308 7.1250 -0.0000 -0.0000 8.2908 -20.8147 4.8539
0.9561 18.5450 0.4637 2.6729 83.3735 13.8941 0.0000 0.0000 0.0000 -17.0256 2.6228 -14.6559 0.6787 5.2677 14.6737 0.5318 -2.9014 -13.0880 2.2951 -9.4555 -27.2308 0.0000 0.0000 0.0000 16.0641 3.0610 -6.5499 0.0000 0.0000 -0.0000 0.0698 5.9386 -1.7284 -0.1877 2.7905 -7.6961 -2.3190 -0.9670 -9.4233 -1.0576 -0.9490 -3.0612 0.1072 -0.4331 2.1258 -1.7097 -6.7248 -16.4214 -1.2715 -8.4821 20.0235 -1.2037 -4.2042 8.9992 -0.0000 0.0000 0.0000 -81.1037 5.5043 48.1330 27.3532 -38.5139 -9.7183 -0.0000 0.0000 -10.4865 11.8688 24.2440 4.9323 -7.1250 0.0000 -0.0000 -18.2780 53.7498 -4.0367 -0.0000 0.0000 0.0000 90.1422 2.7237 52.4968 -13.9019 22.5943 -2.7903 0.0000 0.0000 7.2025 -15.1169 8.7604 -2.3560 7.1250 -0.0000 -0.0000 8.4767 -20.9528 4.9383
0.9577 18.5486 0.4647 2.8194 83.5480 14.1021 0.0000 0.0000 0.0000 -17.0136 2.4730 -14.6926 0.6876 5.3014 14.7703 0.5478 -2.9215 -13.2868 2.3512 -9.5622 -27.5702 0.0000 0.0000 0.0000 16.0855 2.9051 -6.6416 0.0000 0.0000 -0.0000 0.0695 5.9674 -1.7801 -0.1820 2.7481 -7.5782 -2.3211 -0.9574 -9.5710 -1.0196 -0.9317 -3.0119 0.1469 -0.4261 2.2585 -1.5019 -6.3246 -16.5410 -1.3966 -7.9518 19.7282 -1.2088 -3.9581 8.9041 0.0000 0.0000 0.0000 -81.0815 5.3800 48.7491 27.7500 -38.8850 -9.9663 -0.0000 0.0000 -11.0236 11.8435 24.3097 4.9340 -7.1250 0.0000 -0.0000 -18.3376 53.8078 -4.0769 0.0000 0.0000 0.0000 90.0166 2.9045 51.8555 -13.9954 22.7281 -2.8263 0.0000 0.0000 6.6576 -15.0088 8.7279 -2.3298 7.1250 -0.0000 -0.0000 8.5552 -20.9911 4.9776
0.9592 18.5505 0.4681 3.2171 83.7820 14.5300 0.0000 0.0000 0.0000 -17.0084 2.3095 -14.7126 0.6954 5.3307 14.8543 0.5728 -3.1423 -13.5703 2.1079 -9.0873 -26.0689 0.0000 0.0000 0.0000 16.1068 2.6742 -6.7051 0.0000 0.0000 -0.0000 0.0674 5.9725 -1.8795 -0.1932 2.8303 -7.8066 -2.3866 -0.9742 -9.6452 -0.9623 -0.9467 -2.9920 0.2398 -0.4342 2.3223 -1.2742 -5.9296 -16.6202 -1.6262 -7.4127 19.4122 -1.2496 -3.7178 8.7918 -0.0000 0.0000 0.0000 -81.1112 5.3381 49.2586 28.0950 -39.2036 -10.1837 -0.0000 0.0000 -11.4374 11.7631 24.1096 4.8620 -7.1250 0.0000 -0.0000 -18.3106 53.6025 -3.9773 -0.0000 0.0000 0.0000 89.8504 2.9952 51.2794 -14.1052 22.8849 -2.8689 0.0000 0.0000 6.1357 -15.2228 8.7954 -2.3826 7.1250 -0.0000 -0.0000 8.3998 -20.9118 4.9004
0.9625 18.5506 0.4710 4.2719 83.9635 15.5902 0.0000 0.0000 0.0000 -17.0944 2.2349 -14.7590 0.6998 5.3471 14.9013 0.5554 -3.1441 -13.3555 2.2069 -9.2843 -26.6888 0.0000 0.0000 0.0000 16.0491 2.4682 -6.7383 0.0000 -0.0000 0.0000 0.0650 5.9455 -1.9521 -0.2305 3.0904 -8.5304 -2.5134 -0.9950 -9.6976 -0.9424 -0.9605 -2.9710 0.3290 -0.4416 2.3755 -1.0116 -5.5187 -16.6997 -1.8642 -6.8612 19.1301 -1.2991 -3.4688 8.6925 -0.0000 -0.0000 0.0000 -81.0900 5.2986 49.7642 28.4089 -39.4900 -10.3827 -0.0000 0.0000 -11.9228 11.7553 23.9619 4.8308 -7.1250 0.0000 -0.0000 -18.2408 53.4603 -3.8968 -0.0000 -0.0000 0.0000 89.6970 3.1042 50.8210 -14.2103 23.0345 -2.9099 0.0000 0.0000 5.5678 -15.3217 8.7210 -2.3788 7.1250 -0.0000 -0.0000 8.3307 -20.9831 4.8457
0.9664 18.5535 0.4722 5.0879 84.1825 16.4147 0.0000 0.0000 0.0000 -17.1373 2.0552 -14.7210 0.7030 5.3593 14.9361 0.5508 -3.0930 -13.3036 2.3291 -9.5203 -27.4369 0.0000 0.0000 0.0000 16.0248 2.2291 -6.7715 0.0000 0.0000 -0.0000 0.0654 5.9673 -1.9617 -0.2379 3.1392 -8.6666 -2.5517 -1.0293 -9.7790 -0.9317 -0.9993 -2.9335 0.3554 -0.4621 2.4609 -0.7602 -5.0862 -16.7882 -2.0786 -6.2840 18.8619 -1.3373 -3.2052 8.6045 -0.0000 -0.0000 0.0000 -81.0616 5.2464 50.1580 28.6788 -39.7336 -10.5547 -0.0000 0.0000 -12.2816 11.6988 23.7152 4.7607 -7.1250 0.0000 -0.0000 -18.1681 53.2150 -3.7696 -0.0000 -0.0000 0.0000 89.6189 3.2329 50.2654 -14.2839 23.1391 -2.9387 0.0000 0.0000 5.3326 -15.4550 8.5475 -2.3531 7.1250 -0.0000 -0.0000 8.2397 -21.1544 4.7594
0.9689 18.5576 0.4728 5.9351 84.3701 17.2273 0.0000 0.0000 0.0000 -17.2201 2.0868 -14.6762 0.7015 5.3536 14.9198 0.5498 -3.1391 -13.2864 2.5191 -9.8725 -28.5648 0.0000 0.0000 0.0000 15.9914 2.0065 -6.7571 0.0000 0.0000 -0.0000 0.0651 6.0027 -2.0165 -0.2452 3.1863 -8.7978 -2.6180 -1.0549 -9.7980 -0.9085 -1.0269 -2.9027 0.4128 -0.4768 2.5056 -0.5538 -4.6688 -16.8346 -2.2205 -5.7329 18.6618 -1.3483 -2.9479 8.5387 0.0000 -0.0000 0.0000 -81.0784 5.1879 50.4758 28.8681 -39.9032 -10.6760 -0.0000 0.0000 -12.6445 11.5953 23.6748 4.7100 -7.1250 0.0000 -0.0000 -18.2483 53.1581 -3.7613 0.0000 -0.0000 0.0000 89.5327 3.3365 49.6715 -14.3497 23.2324 -2.9647 0.0000 0.0000 5.0790 -15.5104 8.5851 -2.3723 7.1250 -0.0000 -0.0000 8.1988 -21.1132 4.7430
0.9695 18.5579 0.4746 5.8086 84.5551 17.0603 0.0000 0.0000 0.0000 -17.1851 2.1026 -14.6451 0.6967 5.3354 14.8678 0.5509 -3.2064 -13.2923 2.4433 -9.7340 -28.1196 0.0000 0.0000 0.0000 16.0639 1.8185 -6.7370 0.0000 0.0000 -0.0000 0.0653 6.0232 -2.0343 -0.2409 3.1587 -8.7208 -2.5621 -1.0548 -9.7633 -0.8821 -1.0348 -2.9036 0.4084 -0.4806 2.4853 -0.3734 -4.2778 -16.8588 -2.2833 -5.2298 18.4804 -1.3348 -2.7061 8.4801 0.0000 0.0000 0.0000 -81.0400 5.1436 50.8486 28.9614 -39.9864 -10.7359 -0.0000 0.0000 -12.9671 11.4339 23.5025 4.6113 -7.1250 0.0000 -0.0000 -18.3169 52.9652 -3.6882 0.0000 0.0000 0.0000 89.4374 3.3733 49.2485 -14.4715 23.4047 -3.0129 0.0000 0.0000 4.6003 -15.7316 8.3704 -2.3481 7.1250 -0.0000 -0.0000 8.0452 -21.3228 4.6139
